<svg width="512" height="512" viewBox="0 0 512 512" fill="none" xmlns="http://www.w3.org/2000/svg">
<g clip-path="url(#clip0_1_2020)">
<path d="M490.133 185.47L338.965 34.3027C293.11 -11.4342 218.89 -11.4342 173.035 34.3027L21.8669 185.47C7.81897 199.443 -0.0550189 218.455 -1.89699e-05 238.27V459.667C0.0469809 488.566 23.4749 511.974 52.3739 511.998H459.626C488.525 511.975 511.952 488.566 511.999 459.667V238.27C512.055 218.455 504.181 199.443 490.133 185.47ZM447.999 447.998H341.333V380.115C341.333 335.131 304.866 298.664 259.882 298.664H252.118C207.134 298.664 170.667 335.131 170.667 380.115V447.998H63.9999V238.27C64.0069 235.441 65.1249 232.729 67.1149 230.718L218.283 79.5506C239.108 58.7196 272.876 58.7156 293.707 79.5406C293.71 79.5436 293.714 79.5476 293.717 79.5506L444.885 230.718C446.874 232.729 447.993 235.441 448 238.27V447.998H447.999Z" fill="black"/>
</g>
<defs>
<clipPath id="clip0_1_2020">
<rect width="512" height="512" fill="white"/>
</clipPath>
</defs>
</svg>
