<svg width="512" height="512" viewBox="0 0 512 512" fill="none" xmlns="http://www.w3.org/2000/svg">
<g clip-path="url(#clip0_1_2644)">
<path d="M490.656 21.3774C473.015 3.49 447.29 -3.84394 422.869 2.05221L96.7721 70.5863C34.845 79.75 -7.92779 137.381 1.23589 199.307C4.79837 223.382 16.0158 245.672 33.2283 262.879L68.1882 297.86C69.825 299.475 70.7398 301.683 70.7268 303.983V368.485C70.7738 408.613 103.292 441.132 143.42 441.179H207.923C210.226 441.179 212.435 442.092 214.066 443.717L249.026 478.677C270.165 499.956 298.914 511.932 328.908 511.953C341.289 511.943 353.587 509.918 365.318 505.958C405.803 492.513 435.222 457.355 441.318 415.135L509.852 90.0615C516.01 65.3831 508.716 39.2868 490.656 21.3774ZM66.5894 166.977C72.3866 149.067 88.0303 136.134 106.712 133.809C107.466 133.709 108.211 133.581 108.951 133.425L393.113 73.7009L134.719 331.946V303.982C134.766 284.69 127.083 266.184 113.389 252.597L78.4707 217.637C65.0217 204.483 60.3903 184.74 66.5894 166.977ZM378.48 403.061C378.309 403.808 378.203 404.554 378.096 405.301C374.392 432.32 349.487 451.22 322.467 447.516C311.793 446.052 301.889 441.138 294.269 433.521L259.33 398.582C245.736 384.884 227.222 377.202 207.924 377.252H179.96L438.291 118.857L378.48 403.061Z" fill="black"/>
</g>
<defs>
<clipPath id="clip0_1_2644">
<rect width="512" height="512" fill="white"/>
</clipPath>
</defs>
</svg>
